
<svg width="1100" height="420" xmlns="http://www.w3.org/2000/svg">
  <style>
    .lote-text { font-size: 10px; font-family: Arial; text-anchor: middle; }
    .title { font-weight: bold; }
  </style>
  <!-- FILA SUPERIOR -->
  <rect x="0" y="10" width="80" height="100" fill="#ffff00" stroke="#000" />
  <text x="40" y="30" class="lote-text title">L28 MZA15</text>
  <text x="40" y="60" class="lote-text">DISPONIBLE</text>
  <text x="40" y="75" class="lote-text">105M2</text>

  <rect x="90" y="10" width="80" height="100" fill="#6699cc" stroke="#000" />
  <text x="130" y="30" class="lote-text title">L27 MZA15</text>
  <text x="130" y="60" class="lote-text">NO DISPONIBLE</text>

  <rect x="180" y="10" width="80" height="100" fill="#009933" stroke="#000" />
  <text x="220" y="65" class="lote-text title" fill="white">AMENIDAD</text>
  <text x="220" y="85" class="lote-text" fill="white">L26 MZA15</text>

  <rect x="270" y="10" width="80" height="100" fill="#6699cc" stroke="#000" />
  <text x="310" y="30" class="lote-text title">L25 MZA15</text>
  <text x="310" y="60" class="lote-text">NO DISPONIBLE</text>

  <rect x="360" y="10" width="80" height="100" fill="#ffff00" stroke="#000" />
  <text x="400" y="30" class="lote-text title">L24 MZA15</text>
  <text x="400" y="60" class="lote-text">DISPONIBLE</text>
  <text x="400" y="75" class="lote-text">105M2</text>

  <rect x="450" y="10" width="80" height="100" fill="#3399cc" stroke="#000" />
  <text x="490" y="30" class="lote-text title">L23 MZA15</text>
  <text x="490" y="60" class="lote-text">VENDIDO</text>

  <rect x="540" y="10" width="80" height="100" fill="#3399cc" stroke="#000" />
  <text x="580" y="30" class="lote-text title">L22 MZA15</text>
  <text x="580" y="60" class="lote-text">VENDIDO</text>

  <rect x="630" y="10" width="80" height="100" fill="#ffff00" stroke="#000" />
  <text x="670" y="30" class="lote-text title">L21 MZA15</text>
  <text x="670" y="60" class="lote-text">DISPONIBLE</text>
  <text x="670" y="75" class="lote-text">105M2</text>

  <rect x="720" y="10" width="80" height="100" fill="#3399cc" stroke="#000" />
  <text x="760" y="30" class="lote-text title">L20 M15</text>
  <text x="760" y="60" class="lote-text">VENDIDO</text>

  <rect x="810" y="10" width="80" height="100" fill="#6699cc" stroke="#000" />
  <text x="850" y="30" class="lote-text title">L19 M15</text>
  <text x="850" y="60" class="lote-text">NO DISPONIBLE</text>

  <text x="500" y="130" class="lote-text title" font-size="14">TILO</text>

  <!-- FILA INFERIOR -->
  <rect x="0" y="150" width="80" height="100" fill="#3399cc" stroke="#000" />
  <text x="40" y="170" class="lote-text title">L10 M16</text>
  <text x="40" y="200" class="lote-text">VENDIDO</text>

  <rect x="90" y="150" width="80" height="100" fill="#ffff00" stroke="#000" />
  <text x="130" y="170" class="lote-text title">L11 M16</text>
  <text x="130" y="200" class="lote-text">DISPONIBLE</text>
  <text x="130" y="215" class="lote-text">105M2</text>

  <rect x="180" y="150" width="80" height="100" fill="#6699cc" stroke="#000" />
  <text x="220" y="170" class="lote-text title">L12 M16</text>
  <text x="220" y="200" class="lote-text">NO DISPONIBLE</text>

  <rect x="270" y="150" width="80" height="100" fill="#ffff00" stroke="#000" />
  <text x="310" y="170" class="lote-text title">L13 M16</text>
  <text x="310" y="200" class="lote-text">DISPONIBLE</text>
  <text x="310" y="215" class="lote-text">105M2</text>

  <rect x="360" y="150" width="80" height="100" fill="#3399cc" stroke="#000" />
  <text x="400" y="170" class="lote-text title">L14 M16</text>
  <text x="400" y="200" class="lote-text">VENDIDO</text>

  <rect x="450" y="150" width="80" height="100" fill="#3399cc" stroke="#000" />
  <text x="490" y="170" class="lote-text title">L15 M16</text>
  <text x="490" y="200" class="lote-text">VENDIDO</text>

  <rect x="540" y="150" width="80" height="100" fill="#3399cc" stroke="#000" />
  <text x="580" y="170" class="lote-text title">L16 M16</text>
  <text x="580" y="200" class="lote-text">VENDIDO</text>

  <rect x="630" y="150" width="80" height="100" fill="#3399cc" stroke="#000" />
  <text x="670" y="170" class="lote-text title">L17 M16</text>
  <text x="670" y="200" class="lote-text">VENDIDO</text>

  <rect x="720" y="150" width="80" height="100" fill="#3399cc" stroke="#000" />
  <text x="760" y="170" class="lote-text title">L18 M16</text>
  <text x="760" y="200" class="lote-text">VENDIDO</text>

  <rect x="810" y="150" width="80" height="100" fill="#6699cc" stroke="#000" />
  <text x="850" y="170" class="lote-text title">L19 M16</text>
  <text x="850" y="200" class="lote-text">NO DISPONIBLE</text>

  <!-- LEYENDA -->
  <rect x="50" y="280" width="20" height="20" fill="#ffff00" stroke="#000"/>
  <text x="80" y="295" class="lote-text">Disponible</text>

  <rect x="200" y="280" width="20" height="20" fill="#3399cc" stroke="#000"/>
  <text x="230" y="295" class="lote-text">Vendido</text>

  <rect x="350" y="280" width="20" height="20" fill="#6699cc" stroke="#000"/>
  <text x="390" y="295" class="lote-text">No disponible</text>

  <rect x="500" y="280" width="20" height="20" fill="#009933" stroke="#000"/>
  <text x="540" y="295" class="lote-text">Amenidad</text>
</svg>
